# xmcd
#
# Track frame offsets:
#	150
#	16305
#	29529
#	43852
#	61178
#	78711
#	95886
#	113152
#	127163
#	142293
#	158339
#	176179
#	190312
#	204527
#
# Disc length: 2948 seconds
#
# Revision: 1
# Processed by: cddbd v1.5.2PL0 Copyright (c) Steve Scherf et al.
# Submitted via: audiograbber 1.83.01
#
DISCID=d00b820e
DTITLE=Various Artist - Hot hits Country Vol 86
DYEAR=1998
DGENRE=Country
TTITLE0=Meanwhile  George Strait
TTITLE1=CAN'T GET ENOUGH - PAtty Loveless
TTITLE2=HOW FOREVER FEELS - Kenny Chesney
TTITLE3=I CAN'T GET OVER YOU - Brooks and Dunn
TTITLE4=LOVE AIN'T LIKE THAT - Faith Hill
TTITLE5=NO MORE LOOKING OVER MY SHOULDER - Travis Tritt
TTITLE6=HANDS OF A WORKING MAN - Ty Herndon
TTITLE7=I'LL THINK OF A REASON LATER - Lee Ann Womack
TTITLE8=I WILL BE THERE FOR YOU - Jesica Andrews
TTITLE9=YOU WON'T EVER BE LONELY - Andy Griggs
TTITLE10=BETTER MAN - Warren Brothers
TTITLE11=TORE UP FROM THE FLOOR UP - Wade Hayes
TTITLE12=DON'T COME CRYING TO ME - Vince Gill
TTITLE13=YOU DON'T NEED ME NOW - Clint black
EXTD=
EXTT0=
EXTT1=
EXTT2=
EXTT3=
EXTT4=
EXTT5=
EXTT6=
EXTT7=
EXTT8=
EXTT9=
EXTT10=
EXTT11=
EXTT12=
EXTT13=
PLAYORDER=
